<mxfile host="app.diagrams.net" modified="2023-04-11T06:17:05.317Z" agent="Mozilla/5.0 (Windows NT 10.0; Win64; x64) AppleWebKit/537.36 (KHTML, like Gecko) Chrome/111.0.0.0 Safari/537.36" version="21.1.5" etag="S_ecoHbG6WmuST9eCJPW" type="github">
  <diagram name="Page-1" id="5K5kHSLjg2bHLSjXJKIF">
    <mxGraphModel>
      <root>
        <mxCell id="0" />
        <mxCell id="1" parent="0" />
      </root>
    </mxGraphModel>
  </diagram>
</mxfile>
